<svg xmlns="http://www.w3.org/2000/svg" xmlns:xlink="http://www.w3.org/1999/xlink" viewBox="0 0 93.87 62.39"><defs><style>.a{fill:none;}.b{isolation:isolate;}.c{mix-blend-mode:multiply;}.d{clip-path:url(#a);}.e{fill:url(#b);}.f{fill:#23467d;}.g{fill:#143769;}</style><clipPath id="a" transform="translate(0 0.92)"><path class="a" d="M54,15.45c-5,0-5.37,1-8.35,4.39-1.79,2-3.57,3-5.85,3h-15V17.56H39.47c5.54,0,6.81-3.08,7.83-4.38,1.36-1.72,2.69-3.26,6.86-3.26H69v5.53Zm0-9.92c-5,0-5.37,1-8.35,4.39-1.79,2-3.57,3-5.85,3h-15V7.64H39.47c5.54,0,6.81-3.08,7.83-4.38C48.66,1.54,50,0,54.16,0H69V5.53Zm0,19.84c-5,0-5.37,1-8.35,4.39-1.79,2-3.57,3-5.85,3h-15V27.48H39.47c5.54,0,6.81-3.08,7.83-4.37,1.36-1.73,2.69-3.27,6.86-3.27H69v5.53Z"/></clipPath><linearGradient id="b" x1="13.14" y1="-1.04" x2="75.87" y2="30.26" gradientTransform="translate(99.02 34.21) rotate(180)" gradientUnits="userSpaceOnUse"><stop offset="0" stop-color="#376eaa"/><stop offset="1" stop-color="#000037"/></linearGradient></defs><g class="b"><g class="c"><path class="a" d="M55.91,5.54c-6.19,0-8,1.68-10.25,4.38a7,7,0,0,1-6.23,3H24.86V7.65H39.47c5.54,0,7.07-3.45,8.1-4.75C48.92,1.18,51,0,54.62,0H69V5.54Zm0,19.82c-6.19,0-8,1.68-10.25,4.39a7,7,0,0,1-6.23,3H24.86V27.47H39.47c5.54,0,7.07-3.45,8.1-4.74,1.35-1.72,3.42-2.9,7-2.9H69v5.53Z" transform="translate(0 0.92)"/><g class="d"><rect class="e" x="24.17" y="-0.92" width="50.67" height="36.06" transform="translate(99.02 35.14) rotate(-180)"/></g><path class="f" d="M21,51.19a.49.49,0,0,1,0-.52l4.76-6.75a.47.47,0,0,0,0-.5.48.48,0,0,0-.43-.26h-2.7a.5.5,0,0,0-.41.23L18,50.17a.54.54,0,0,1-.57.22.49.49,0,0,1-.36-.47V43.65a.48.48,0,0,0-.48-.49h-2.3a.48.48,0,0,0-.48.49V60.88a.48.48,0,0,0,.48.48h2.3a.48.48,0,0,0,.48-.48V55.29a.48.48,0,0,1,.1-.28l1-1.31a.49.49,0,0,1,.39-.19h0a.47.47,0,0,1,.39.26l3.84,7.33a.48.48,0,0,0,.43.26h2.64a.49.49,0,0,0,.42-.24.48.48,0,0,0,0-.48Z" transform="translate(0 0.92)"/><path class="f" d="M7.31,51.09h0L7.06,51c-2.84-1-3.82-1.49-3.82-3a2.45,2.45,0,0,1,2.57-2.38A2.34,2.34,0,0,1,8.3,47.71a.47.47,0,0,0,.47.37h2a.51.51,0,0,0,.37-.16.47.47,0,0,0,.11-.38,4.86,4.86,0,0,0-1.87-3.39,5.77,5.77,0,0,0-3.46-1.08,6,6,0,0,0-4.24,1.66A4.78,4.78,0,0,0,.29,48.21,4.2,4.2,0,0,0,2,51.72a9,9,0,0,0,2.74,1.33l.51.19c2.22.8,3.37,1.3,3.37,3a2.78,2.78,0,0,1-2.83,2.72A2.93,2.93,0,0,1,3,56.17a.49.49,0,0,0-.48-.41h-2a.51.51,0,0,0-.35.15.5.5,0,0,0-.13.37c.23,3.2,2.46,5.18,5.84,5.18a5.73,5.73,0,0,0,4.46-1.77,5.49,5.49,0,0,0,1.29-3.63C11.59,53.44,10,52.22,7.31,51.09Z" transform="translate(0 0.92)"/><path class="f" d="M40.21,43.16H37.67a.49.49,0,0,0-.44.28L34.3,49.55a.49.49,0,0,1-.87,0l-3-6.12a.51.51,0,0,0-.44-.27H27.47a.49.49,0,0,0-.43.71l5.08,9.78a.54.54,0,0,1,.05.22V61a.48.48,0,0,0,.48.48H35a.48.48,0,0,0,.49-.48V53.87a.54.54,0,0,1,.05-.22l5.08-9.78a.47.47,0,0,0,0-.47A.47.47,0,0,0,40.21,43.16Z" transform="translate(0 0.92)"/><path class="g" d="M75.45,43.52a.49.49,0,0,0-.47-.36H71.45a.5.5,0,0,0-.47.35L66.1,60.75a.49.49,0,0,0,.08.42.47.47,0,0,0,.38.19h2.32a.47.47,0,0,0,.46-.36l1.09-4.15a.48.48,0,0,1,.47-.36h4.4a.48.48,0,0,1,.47.35L76.89,61a.49.49,0,0,0,.47.36H79.8a.51.51,0,0,0,.39-.19.49.49,0,0,0,.08-.42ZM75,53.87a.47.47,0,0,1-.38.19h-3a.49.49,0,0,1-.38-.19.46.46,0,0,1-.08-.41s1.26-5,1.5-6c.14-.61.79-.68.94,0,.23,1,1.52,6,1.52,6A.47.47,0,0,1,75,53.87ZM53,43.16H42.66a.49.49,0,0,0-.49.49V60.88a.49.49,0,0,0,.49.48H45a.49.49,0,0,0,.48-.48V54a.49.49,0,0,1,.48-.49h3a.48.48,0,0,0,.48-.48v-1.8a.49.49,0,0,0-.48-.48h-3a.49.49,0,0,1-.48-.48V46.46a.49.49,0,0,1,.48-.48H53a.49.49,0,0,0,.49-.48V43.65A.49.49,0,0,0,53,43.16Zm36.1,0a8.93,8.93,0,0,0-6.27,2.49,9,9,0,0,0-2.53,6.59,9.51,9.51,0,0,0,2.44,6.65,8.74,8.74,0,0,0,6.45,2.43A8,8,0,0,0,93.66,60a.46.46,0,0,0,.21-.4V51.86a.48.48,0,0,0-.48-.48h-4a.49.49,0,0,0-.48.48v1.72a.48.48,0,0,0,.48.48h.82a.49.49,0,0,1,.48.49v3.39a.47.47,0,0,1-.35.46,5.82,5.82,0,0,1-1.58.18c-3.42,0-5.43-2.31-5.5-6.34a6.61,6.61,0,0,1,1.79-4.78,5.1,5.1,0,0,1,4.07-1.64ZM64.23,58.62H58.59a.47.47,0,0,1-.48-.48V43.65a.49.49,0,0,0-.49-.49H55.3a.48.48,0,0,0-.48.49V60.88a.48.48,0,0,0,.48.48h8.93a.49.49,0,0,0,.48-.48V59.11A.49.49,0,0,0,64.23,58.62Z" transform="translate(0 0.92)"/><path class="g" d="M89.12,43.16h2.79a.53.53,0,0,1,.53.53V45.3a.52.52,0,0,1-.53.52H89.12Z" transform="translate(0 0.92)"/></g></g></svg>